<svg width="13" height="17" viewBox="0 0 13 17" fill="none" xmlns="http://www.w3.org/2000/svg">
<path d="M10.7033 0.5H1.41992C0.663856 0.5 0 1.12198 0 1.8582V15.5911C0 15.8375 0.0685889 16.0429 0.179131 16.2016C0.311329 16.3913 0.524188 16.5 0.75244 16.4999C0.968243 16.4999 1.198 16.4039 1.41018 16.2226L5.56355 12.6962C5.69182 12.5867 5.87608 12.5239 6.06766 12.5239C6.25917 12.5239 6.44305 12.5867 6.57171 12.6965L10.7112 16.2221C10.9241 16.4039 11.138 16.5 11.3535 16.5C11.7178 16.5 12.0729 16.219 12.0729 15.5911V1.8582C12.0729 1.12198 11.4593 0.5 10.7033 0.5Z" fill="white"/>
</svg>
