<svg width="16" height="20" viewBox="0 0 16 20" fill="none" xmlns="http://www.w3.org/2000/svg">
<path d="M13.3789 0C14.3238 0 15.0906 0.777203 15.0908 1.69727V18.8643C15.0907 19.6489 14.6467 20 14.1914 20C13.9223 19.9999 13.6547 19.8794 13.3887 19.6523L8.21484 15.2461C8.05412 15.1088 7.82421 15.0304 7.58496 15.0303C7.34548 15.0303 7.11444 15.1082 6.9541 15.2451L1.7627 19.6533C1.49748 19.8799 1.21017 20 0.94043 20C0.65516 20.0001 0.388857 19.864 0.223633 19.627C0.0855771 19.4287 7.92182e-05 19.172 0 18.8643V1.69727C0.000287967 0.77736 0.829701 0.000265203 1.77441 0H13.3789Z" fill="white"/>
<path d="M13.3789 0C14.3238 0 15.0906 0.777203 15.0908 1.69727V18.8643C15.0907 19.6489 14.6467 20 14.1914 20C13.9223 19.9999 13.6547 19.8794 13.3887 19.6523L8.21484 15.2461C8.05412 15.1088 7.82421 15.0304 7.58496 15.0303C7.34548 15.0303 7.11444 15.1082 6.9541 15.2451L1.7627 19.6533C1.49748 19.8799 1.21017 20 0.94043 20C0.65516 20.0001 0.388857 19.864 0.223633 19.627C0.0855771 19.4287 7.92182e-05 19.172 0 18.8643V1.69727C0.000287967 0.77736 0.829701 0.000265203 1.77441 0H13.3789Z" stroke="#042541"/>
</svg>
